PathFileType	4	(X/Y/Z)	 s05c0401.trc
DataRate	CameraRate	NumFrames	NumMarkers	Units	OrigDataRate	OrigDataStartFrame	OrigNumFrames
200	200	4	50	mm	200	1	2000
Frame#	Time	racr			lacr			c7			jug			rlel			rdr			llel			ldr			s2			lic			ric			lasi			rasi			rpsi			lpsi			rgt			lgt			rth1			rth2			rth3			rth4			rlfc			rmfc			rsh1			rsh2			rsh3			rsh4			rlmal			rmmal			rcal			rtoe			rmt5			lth1			lth2			lth4			lth3			llfc			lmfc			lsh1			lsh2			lsh3			lsh4			llmal			lmmal			lcal			ltoe			lmt5			SBIKE			LBIKE			RBIKE			
		X1	Y1	Z1	X2	Y2	Z2	X3	Y3	Z3	X4	Y4	Z4	X5	Y5	Z5	X6	Y6	Z6	X7	Y7	Z7	X8	Y8	Z8	X9	Y9	Z9	X10	Y10	Z10	X11	Y11	Z11	X12	Y12	Z12	X13	Y13	Z13	X14	Y14	Z14	X15	Y15	Z15	X16	Y16	Z16	X17	Y17	Z17	X18	Y18	Z18	X19	Y19	Z19	X20	Y20	Z20	X21	Y21	Z21	X22	Y22	Z22	X23	Y23	Z23	X24	Y24	Z24	X25	Y25	Z25	X26	Y26	Z26	X27	Y27	Z27	X28	Y28	Z28	X29	Y29	Z29	X30	Y30	Z30	X31	Y31	Z31	X32	Y32	Z32	X33	Y33	Z33	X34	Y34	Z34	X35	Y35	Z35	X36	Y36	Z36	X37	Y37	Z37	X38	Y38	Z38	X39	Y39	Z39	X40	Y40	Z40	X41	Y41	Z41	X42	Y42	Z42	X43	Y43	Z43	X44	Y44	Z44	X45	Y45	Z45	X46	Y46	Z46	X47	Y47	Z47	X48	Y48	Z48	X49	Y49	Z49	X50	Y50	Z50	
1	0.0050	396.807788	1403.809283	-121.259976	406.964681	1425.130778	-411.211769	374.004729	1493.302320	-270.021075	373.306943	1334.568355	-270.582000	501.153876	1162.553243	-29.404585	686.038601	968.542251	-49.733432	498.169436	1170.124380	-506.893611	692.233517	974.402293	-482.973797	-107.924127	1157.553400	-262.964983	39.730963	1180.417474	-403.752836	36.945226	1195.262881	-123.108459	92.178638	1129.091914	-373.254163	80.407533	1134.603553	-149.998457	-80.436856	1206.228873	-223.510590	-77.696549	1208.431004	-309.559429	3.779225	1061.692743	-91.986810	-22.296165	1071.168147	-431.486547	103.018761	1002.290067	-76.446059	190.668604	985.704142	-74.073647	256.723131	927.356718	-76.949427	205.898772	1018.052006	-85.253423	391.890282	849.629708	-104.045853	381.204817	844.598537	-214.856037	329.185350	755.593034	-83.205643	323.455479	667.155753	-93.570384	277.770302	595.133220	-99.214155	352.236736	659.357648	-116.945504	243.770756	464.262655	-111.855562	256.999431	488.696835	-191.085912	172.569949	433.290907	-158.520845	466.197808	407.653506	-145.159330	363.618425	384.135540	-82.719969	64.185737	959.575390	-451.837848	136.837158	914.449095	-452.919345	164.510914	935.970530	-438.513967	177.132173	832.217624	-454.062099	255.963011	702.546799	-428.935235	244.025708	692.021697	-319.657000	157.871669	621.107888	-450.952874	117.084189	544.168270	-439.913955	41.072100	498.263629	-437.577191	141.665490	524.966240	-417.382492	-37.255173	402.113781	-429.114861	-5.824233	413.393020	-351.707021	-110.009118	386.353509	-385.874203	154.681875	259.191798	-396.230458	44.208065	276.046857	-458.630635	-215.377758	915.449451	-268.188812	-43.555168	85.059851	-474.987971	-51.603630	79.724765	-77.464830	
2	0.0100	396.871370	1403.788291	-121.287597	407.041959	1425.168953	-411.230745	374.077975	1493.287361	-270.011244	373.344971	1334.584141	-270.615946	501.061966	1162.502601	-29.263437	685.964035	968.515172	-49.809094	498.180534	1170.133790	-506.893812	692.210569	974.402682	-482.915231	-107.571445	1157.442710	-262.911331	39.796867	1180.380077	-403.765446	37.024056	1195.272965	-123.139087	92.251622	1129.061833	-373.263260	80.474125	1134.626538	-150.006095	-80.351301	1206.243335	-223.537365	-77.606300	1208.411321	-309.603596	3.870086	1061.670782	-92.018126	-22.232645	1071.159395	-431.483527	103.067108	1002.291313	-76.455392	190.723409	985.736577	-74.082463	256.799070	927.370560	-76.994565	205.943927	1018.108210	-85.255797	391.993035	849.685437	-104.087204	381.274557	844.642670	-214.867407	329.291731	755.677939	-83.236549	323.543892	667.239009	-93.586520	277.841888	595.199826	-99.243977	352.327849	659.427116	-116.976175	243.771280	464.409482	-111.874545	257.133603	488.904408	-191.337920	172.583286	433.414389	-158.494766	466.195305	407.666231	-145.156932	363.600606	384.181407	-82.733796	64.260602	959.548687	-451.827153	136.931457	914.365287	-452.893965	164.573546	935.917757	-438.463941	177.187826	832.172324	-454.035918	255.974147	702.471826	-428.895103	244.031749	691.972162	-319.631811	157.897839	621.026380	-450.937555	117.095154	544.116481	-439.921906	41.074731	498.195112	-437.572094	141.636561	524.869658	-417.371078	-37.251607	402.056191	-429.119512	-5.810312	413.360824	-351.726230	-109.998695	386.291876	-385.878722	154.697266	259.163900	-396.231408	44.230605	276.000329	-458.629715	-215.370038	915.439590	-268.183303	-43.603199	85.114583	-475.035722	-51.620720	79.735545	-77.450356	
3	0.0150	396.921683	1403.791965	-121.278108	407.121328	1425.206048	-411.241215	374.169060	1493.268899	-270.059325	373.390577	1334.606121	-270.630161	500.994768	1162.462011	-29.138178	685.889785	968.482523	-49.880367	498.178216	1170.128142	-506.919311	692.199098	974.388110	-482.877089	-107.493416	1157.439128	-262.932646	39.898660	1180.339330	-403.791687	37.115144	1195.283937	-123.166760	92.348492	1129.025581	-373.263620	80.549721	1134.612574	-150.026338	-80.283166	1206.243915	-223.540345	-77.511838	1208.397464	-309.635355	3.911784	1061.684370	-92.030499	-22.156040	1071.141645	-431.501034	103.117296	1002.298051	-76.460962	190.770379	985.762329	-74.114569	256.854545	927.421374	-77.039975	205.988658	1018.138621	-85.280410	392.057874	849.737815	-104.110180	381.358940	844.726993	-214.919351	329.400194	755.749024	-83.246484	323.640043	667.302595	-93.598492	277.893508	595.303753	-99.242762	352.383072	659.483965	-117.003688	243.817386	464.496815	-111.876759	257.174193	488.985677	-191.355408	172.600961	433.537747	-158.500117	466.198736	407.680668	-145.171684	363.605728	384.228717	-82.720913	64.317401	959.526971	-451.842928	136.974137	914.315124	-452.878695	164.621443	935.865872	-438.446868	177.210396	832.133025	-454.018870	255.986302	702.407102	-428.869118	244.009388	691.894796	-319.590439	157.908456	620.951246	-450.906958	117.094138	544.034797	-439.889620	41.071231	498.144807	-437.567653	141.624715	524.774290	-417.340856	-37.266578	401.991325	-429.114599	-5.849118	413.343972	-351.722430	-110.013072	386.230480	-385.869824	154.702993	259.138756	-396.244724	44.228146	275.960113	-458.620192	-215.369726	915.433845	-268.183246	-43.596217	85.106024	-475.025498	-51.613288	79.727092	-77.461216	
4	0.0200	396.971496	1403.787599	-121.296844	407.175376	1425.233595	-411.251002	374.253352	1493.234663	-270.061982	373.447586	1334.636582	-270.648549	500.930897	1162.424864	-29.014184	685.799125	968.453895	-49.940652	498.290787	1170.133249	-506.861504	691.841146	974.141808	-482.703934	-107.758337	1157.573000	-263.061549	39.942938	1180.283029	-403.764940	37.191827	1195.301382	-123.173835	92.203789	1129.472059	-373.048266	80.618164	1134.617239	-150.037677	-80.209223	1206.250750	-223.560906	-77.230966	1208.654834	-309.766188	3.957064	1061.687221	-92.031875	-21.979446	1071.063573	-431.494051	103.029990	1002.581113	-76.467653	190.833294	985.802592	-74.127370	256.674833	927.376313	-77.198290	206.032731	1018.156986	-85.292005	392.144677	849.791382	-104.142454	381.411963	844.800581	-214.944650	329.511331	755.829937	-83.264074	323.606029	667.364552	-93.931378	277.958854	595.380846	-99.241514	353.715319	660.476305	-116.929560	243.598587	465.122898	-111.659873	257.210431	488.857797	-191.111485	172.617366	433.635947	-158.480820	466.223931	407.681109	-145.167336	363.604664	384.283382	-82.734545	64.654604	959.804547	-452.169938	137.272975	913.695322	-452.848636	164.641153	935.739109	-438.324265	177.248881	832.071252	-453.972484	255.992676	702.336870	-428.826520	244.017923	691.833463	-319.567447	158.012400	620.832253	-450.926974	117.087065	543.973549	-439.850516	41.038870	498.084358	-437.571117	141.064702	524.626750	-416.838199	-37.318963	402.006027	-429.158350	-6.505769	413.878266	-351.621931	-110.017655	386.226249	-385.998297	154.709297	259.104110	-396.233581	44.235012	275.904406	-458.624578	-215.425285	915.463234	-268.424580	-43.593410	85.101585	-475.024031	-51.718469	79.964855	-77.302870	
